<svg xmlns="http://www.w3.org/2000/svg" viewBox="0 0 636.07 614.18"><defs><style>.cls-1{fill:#d02422;fill-rule:evenodd;}</style></defs><title>Asset 2</title><g id="Layer_2" data-name="Layer 2"><g id="Layer_1-2" data-name="Layer 1"><path class="cls-1" d="M58.9,127.23H79.71V0H58.9Zm-28,0H51.73V0H30.92Zm56,0h20.8V0H86.88ZM3,260.94H23.76V133.71H3Zm55.95,0H79.71V133.71H58.9Zm-28,0H51.73V133.71H30.92Zm56,0h20.8V133.71H86.88ZM3,394.65H23.76V267.42H3Zm55.95,0H79.71V267.42H58.9Zm-28,0H51.73V267.42H30.92Zm56,0h20.8V267.42H86.88Zm92.21-267.42h20.8V0h-20.8Zm55.95,0h20.8V0H235Zm-28,0h20.8V0h-20.8Zm56,0h20.8V0H263ZM179.08,260.94h20.8V133.71h-20.8Zm55.95,0h20.8V133.71H235Zm-28,0h20.81V133.71H207.06Zm55.95,0h20.8V133.71H263ZM179.08,394.65h20.8V267.42h-20.8Zm55.95,0h20.8V267.42H235Zm-28,0h20.81V267.42H207.06Zm55.95,0h20.8V267.42H263Zm92.21-267.42H376V0h-20.8Zm55.94,0H432V0h-20.8Zm-28,0H404V0h-20.8Zm55.95,0h20.81V0H439.13ZM355.21,260.94H376V133.71h-20.8Zm55.94,0H432V133.71h-20.8Zm-28,0H404V133.71h-20.8Zm55.95,0h20.81V133.71H439.13ZM355.21,394.65H376V267.42h-20.8Zm55.94,0H432V267.42h-20.8Zm-28,0H404V267.42h-20.8Zm55.95,0h20.81V267.42H439.13Zm92.21-267.42h20.8V0h-20.8Zm55.95,0h20.8V0h-20.8Zm-28,0h20.8V0h-20.8Zm55.95,0h20.8V0h-20.8ZM531.34,260.94h20.8V133.71h-20.8Zm55.95,0h20.8V133.71h-20.8Zm-28,0h20.8V133.71h-20.8Zm55.95,0h20.8V133.71h-20.8ZM531.34,394.65h20.8V267.42h-20.8Zm55.95,0h20.8V267.42h-20.8Zm-28,0h20.8V267.42h-20.8Zm55.95,0h20.8V267.42h-20.8ZM11.65,589.46,2,576.07H0v-5.46H4.6L15.94,586.7h.92V570.61h5.46V586.7h.92l11.34-16.08h4.6v5.46h-2l-9.65,13.38,9.65,13.13h2v5.46h-4.6L23.24,592.17h-.92V608H16.86V592.17h-.92L4.6,608.05H0v-5.46H2ZM70.09,608H47.46V592.17l-3.12-2.77,3.12-2.71V570.61H70.09v5.46H52.93V586.7H66.16v5.47H52.93v10.37H70.09Zm7-5.52h4l1.17-1.58v-8.73l-3.12-2.77,3.12-2.71V575.61l4-5h19.92V586.7l3.12,2.71-3.12,2.77V608H100.8V576.07H88.94l-1.17,1.58V603l-4,5H77.09ZM141.67,608H119V592.17l-3.11-2.77L119,586.7V570.61h22.63v5.46H124.5V586.7h13.23v5.47H124.5v10.37h17.17Zm16.6-31.93-3.88,3.22v3.33h-5.47v-5.77l7-6.23h12.57l6.08,7v7.52l-3.48,4,3.83,4.09v7.82l-5.87,7H155.92l-7-6.18v-6h5.47v3.58l3.88,3.21h8.18l3-3.93v-3.12l-3-3.32h-6.28V586.7h5.72l3.22-3.89V580l-3.22-3.88ZM215.6,589.4l-3.12,2.77V608H207V592.17H191.43V608H186V592.17l-3.11-2.77L186,586.7V570.61h5.47V586.7H207V570.61h5.46V586.7Zm39.34.05-3.12,2.71v9.65l-7,6.23H231.53l-7.05-6.23v-9.65l-3.12-2.71,3.12-2.76v-9.86l7.05-6.23h13.28l7,6.23v9.86Zm-8.58,9.81V579.44l-3.88-3.37h-8.58L230,579.44v19.83l3.88,3.32h8.58Zm48.38,14.91h-5.46v-6.13H266.58v6.13h-5.46V602.59h4l1.17-1.59v-8.84l-3.12-2.77,3.12-2.71V575.61l4-5h19.92V586.7l3.12,2.71-3.12,2.77v10.42h4.44Zm-9.91-38.11H273l-1.17,1.58v24.94h13Zm47.92,13.38-3.12,2.71v9.65l-7,6.23H309.34l-7.05-6.23v-9.65l-3.11-2.71,3.11-2.76v-9.86l7.05-6.23h13.29l7,6.23v9.86Zm-8.58,9.81V579.44l-3.88-3.37h-8.58l-3.88,3.37v19.83l3.88,3.32h8.58Zm42.35-14.1-6.08,7H347.76v15.84h-5.47V592.17l-3.12-2.71,3.12-2.76V570.61h18.14l6.08,7ZM361,582.81V580l-3.22-3.88H347.76V586.7h10.06Zm45.47,6.65-3.12,2.71v9.65l-7,6.23H383.11l-7.05-6.23v-9.65l-3.12-2.71,3.12-2.76v-9.86l7.05-6.23H396.4l7,6.23v9.86Zm-8.58,9.81V579.44l-3.88-3.37h-8.58l-3.88,3.37v19.83l3.88,3.32h8.58Zm24.57-9.81-9.66-13.38h-2v-5.46h4.6l11.34,16.08h.92V570.61h5.47V586.7h.92l11.34-16.08H450v5.46h-2l-9.66,13.38,9.66,13.13h2v5.46h-4.6L434.1,592.17h-.92V608h-5.47V592.17h-.92l-11.34,15.88h-4.6v-5.46h2Zm66.06-.05-3.12,2.77V608H480V592.17H464.4V608h-5.47V592.17l-3.12-2.77,3.12-2.71V570.61h5.47V586.7H480V570.61h5.46V586.7Zm9.6-2.71V570.61h5.47v27l15.33-27h5.77V586.7l3.12,2.76-3.12,2.71v15.88h-5.46V580.31l-15.63,27.74h-5.47V592.17l-3.11-2.71Zm52.42-1.53v-9.5l4-5h6.64v5.52h-4L556,577.76v9.45l-2.45,3,8.74,17.83h-5.93l-7.82-15.84H541.9v15.84h-5.47V592.22l-3.12-2.76,3.12-2.71V570.61h5.47v16.13h7.46Zm50.12,4.29-3.12,2.71v9.65l-7,6.23H577.31l-7.05-6.23v-9.65l-3.11-2.71,3.11-2.76v-9.86l7.05-6.23h13.28l7,6.23v9.86Zm-8.58,9.81V579.44l-3.89-3.37h-8.59l-3.88,3.37v19.83l3.88,3.32h8.59Zm41.94,1.79-5.87,7h-18.7V592.17l-3.12-2.71,3.12-2.71V570.61h18.14l6.07,7v7.52l-3.47,4,3.83,4.09Zm-5.82-18.25V580L625,576H615V586.7H625Zm.35,15.9v-3.12l-3-3.32H615v10.37h10.63ZM.46,524.86H5.38c6.25-10.9,6.78-28.72,6.78-41.08v-43.2H45.39v84.28h7.44v29.38H44.07v-20.6H9.23v20.6H.46Zm36.16,0V449.35H20.93v34.43c0,13-.66,28.32-5.85,41.08Zm43.88-84.28A12.48,12.48,0,0,1,93,453.07v17.68c0,4.52-2.39,10.63-7.58,12.76,5.19,1.86,7.58,7,7.58,11.57v26.05a12.49,12.49,0,0,1-12.5,12.5h-21V440.58Zm3.72,29.78V453.07a3.71,3.71,0,0,0-3.72-3.72H68.27v30h9.17C82.62,479.39,84.22,475.41,84.22,470.35Zm-16,54.5H80.49a3.63,3.63,0,0,0,3.72-3.72v-27c0-6-2.79-6.65-7.71-6.65H68.27Zm69.13-3.72a12.49,12.49,0,0,1-12.5,12.5h-8.77a12.57,12.57,0,0,1-12.5-12.5V453.07a12.57,12.57,0,0,1,12.5-12.49h8.77a12.48,12.48,0,0,1,12.5,12.49Zm-12.5-71.78h-8.77a3.8,3.8,0,0,0-3.72,3.72v68.06a3.72,3.72,0,0,0,3.72,3.72h8.77a3.72,3.72,0,0,0,3.72-3.72V453.07A3.8,3.8,0,0,0,124.89,449.35ZM148,440.58h19.4a12.56,12.56,0,0,1,12.5,12.49v30.31c0,6.78-4.65,12.37-11.7,12.37H156.81v37.89H148Zm8.77,46.92h10.1c2.66,0,4.25-2.39,4.25-4.78V453.07a3.8,3.8,0,0,0-3.72-3.72H156.81Zm41.88-38.15v30h14.49v8.11H198.68v37.36h16.49v8.78H189.91V440.58H215.3v8.77Zm34.7,75.51h16V440.58h8.77v84.28h7.31v29.38h-8.78v-20.6h-32V440.58h8.77Zm74.85-37.36h-3.45v46.13H296V440.58h8.78v38.82h3.72a6.63,6.63,0,0,0,6.91-6.91V454a13.33,13.33,0,0,1,13.16-13.42h.67v8.64h-.67a4.78,4.78,0,0,0-4.39,4.79v19.27c0,4.79-2.66,9.84-7.45,11.83l12.5,48.53h-9Zm44,19.41h-8.11l-10.9-66.33h8.91l9.3,57.56h1.73l6.65-57.56h8.9l-10.76,93.06H349Zm51.06-57.56H389.46V496c0,16.22,0,39.08-16.09,39.08v-8.77c7.31,0,7.31-20.35,7.31-27V440.58h31.37v93.06h-8.77Zm19.41-8.77h8.77v30.71H443.7a12.56,12.56,0,0,1,12.5,12.49v37.35a12.48,12.48,0,0,1-12.5,12.5h-21Zm24.72,42.54a3.8,3.8,0,0,0-3.72-3.72H431.47v45.46H443.7a3.8,3.8,0,0,0,3.72-3.72Zm33.1-33.76v84.28h-8.78V449.35H461v-8.77h30.31v8.77Zm35.1,57.56h-8.11l-10.9-66.33h8.9l9.3,57.56h1.73l6.65-57.56h8.91l-10.77,93.06h-8.9Zm23.8-66.33h19.41a12.57,12.57,0,0,1,12.5,12.49v30.31c0,6.78-4.65,12.37-11.7,12.37H548.2v37.89h-8.78Zm8.78,46.92h10.1c2.66,0,4.26-2.39,4.26-4.78V453.07a3.8,3.8,0,0,0-3.72-3.72H548.2Zm33.11-46.92h8.77v30.71H602.3a12.31,12.31,0,0,1,12.49,12.49v37.35a12.48,12.48,0,0,1-12.49,12.5h-21ZM606,483.11a3.72,3.72,0,0,0-3.72-3.72H590.07v45.46H602.3a3.72,3.72,0,0,0,3.72-3.72Zm17.55-42.54h8.78v93.06h-8.78ZM3,127.23H23.76V0H3Z"/></g></g></svg>